<svg width="24" height="25" viewBox="0 0 24 25" fill="none" xmlns="http://www.w3.org/2000/svg">
<path d="M16.9135 23.0125H7.02157C5.82769 23.0125 4.85986 22.0447 4.85986 20.8508V10.9589C4.85986 9.76499 5.82769 8.79716 7.02157 8.79716H16.9135C18.1074 8.79716 19.0752 9.76499 19.0752 10.9589V20.8508C19.0752 22.0447 18.1074 23.0125 16.9135 23.0125Z" stroke="white" stroke-width="1.85276"/>
<path d="M11.8858 12.7137L15 15.9714L12.0131 19.096" stroke="white" stroke-width="1.85276"/>
<path d="M15 15.9714H7.86224" stroke="white" stroke-width="1.85276"/>
<path d="M11.9675 8.67196C14.227 8.67196 20.1283 5.25364 16.5576 3.19208C12.9837 1.12869 11.9675 6.40114 11.9675 8.67196" stroke="white" stroke-width="1.85276"/>
<path d="M11.9675 8.67196C9.70803 8.67196 3.80675 5.25364 7.37747 3.19208C10.9514 1.12869 11.9675 6.40115 11.9675 8.67196Z" stroke="white" stroke-width="1.85276"/>
</svg>
